
[code]
Hop 2011 PPVRiP XViD - IMAGiNE

Ripper ...........: IMAGiNE                                      IMDB Rating.......: 5.1/10                            
Video Codec.......: XVID                                         Release Date......: 05/06/11
Audio Codec.......: MP3                                          Theatre Date......: 01/04/11
Audio Bitrate.....: 224                                          Runtime.......: 1h 34mn
Subtitles.........: NIL                                          Language..........: ENGLISH
Resolution......: 640 x 480                                      IMDb URL..........: http://www.imdb.com/title/tt1411704/

DETAILS:

Video
ID                               : 0
Format                           : MPEG-4 Visual
Format profile                   : Advanced Simple@L5
Format settings, BVOP            : 2
Format settings, QPel            : No
Format settings, GMC             : No warppoints
Format settings, Matrix          : Default (MPEG)
Muxing mode                      : Packed bitstream
Codec ID                         : XVID
Codec ID/Hint                    : XviD
Duration                         : 1h 34mn
Bit rate                         : 1 933 Kbps
Width                            : 640 pixels
Height                           : 480 pixels
Display aspect ratio             : 4:3
Frame rate                       : 29.970 fps
Color space                      : YUV
Chroma subsampling               : 4:2:0
Bit depth                        : 8 bits
Scan type                        : Progressive
Compression mode                 : Lossy
Bits/(Pixel*Frame)               : 0.210
Stream size                      : 1.28 GiB (89%)
Writing library                  : XviD 61



Audio
ID                               : 1
Format                           : MPEG Audio
Format version                   : Version 1
Format profile                   : Layer 2
Codec ID                         : 50
Duration                         : 1h 34mn
Bit rate mode                    : Constant
Bit rate                         : 224 Kbps
Channel(s)                       : 2 channels
Sampling rate                    : 48.0 KHz
Compression mode                 : Lossy
Delay relative to video          : 11ms
Stream size                      : 152 MiB (10%)
Alignment                        : Split accross interleaves
Interleave, duration             : 33 ms (1.00 video frame)

Plot:
E.B., the Easter Bunny's teenage son, heads to Hollywood, determined to become a drummer in a rock 'n' roll band. In LA, he's taken in by Fred after the out-of-work slacker hits E.B. with his car.

SOURCES:
Thanks M8ty 

NOTES:

IMAGiNE bringing you another release..........
Hop PPVRiP..........
Here we are with a nice ppvrip of Hop 
Source files were very nice,
just needed some adjustment to the colors
Light vertical flicker on this one, not to bad tho 
Then we remuxed the audio to our encode and there ya go 
Much better than previous cam
so will do till something better shows up....
Anyhow
Enjoy Folks!
[/code]
Screens: